<svg width="12" height="12" viewBox="0 0 12 12" fill="none" xmlns="http://www.w3.org/2000/svg">
<path d="M6.33447 8.38085L10.1488 4.56646C10.2371 4.47823 10.2857 4.36046 10.2857 4.23489C10.2857 4.10932 10.2371 3.99155 10.1488 3.90332L9.86796 3.62242C9.68496 3.43963 9.38754 3.43963 9.20483 3.62242L6.00179 6.82546L2.79519 3.61887C2.7069 3.53064 2.5892 3.48193 2.4637 3.48193C2.33805 3.48193 2.22035 3.53064 2.13199 3.61887L1.85123 3.89977C1.76293 3.98806 1.71429 4.10576 1.71429 4.23134C1.71429 4.35691 1.76293 4.47468 1.85123 4.5629L5.66904 8.38085C5.75761 8.46928 5.87586 8.51785 6.00158 8.51757C6.12778 8.51785 6.24597 8.46928 6.33447 8.38085Z" fill="#2C7DFA"/>
</svg>
